<svg xmlns="http://www.w3.org/2000/svg" xmlns:xlink="http://www.w3.org/1999/xlink" width="277.38" height="37" viewBox="0 0 277.38 37"><defs><clipPath id="a"><rect y="-0.08" width="53.31" height="37.16" fill="none"/></clipPath></defs><title>usda-symbol__header</title><path d="M66.08,2.71h7.16V4H67.66v4.2h4.73V9.56H67.66v5.57H66.08Z"/><path d="M74.61,10.55A5.61,5.61,0,0,1,75,8.49,4.68,4.68,0,0,1,75.89,7,3.93,3.93,0,0,1,77.25,6a4.23,4.23,0,0,1,3.24,0A3.93,3.93,0,0,1,81.84,7a4.7,4.7,0,0,1,.94,1.52,5.63,5.63,0,0,1,.35,2.05,5.57,5.57,0,0,1-.35,2,4.59,4.59,0,0,1-.94,1.52,4,4,0,0,1-1.35.94,4.23,4.23,0,0,1-3.24,0,4,4,0,0,1-1.35-.94A4.57,4.57,0,0,1,75,12.58,5.55,5.55,0,0,1,74.61,10.55Zm1.61,0A5.1,5.1,0,0,0,76.4,12a3.4,3.4,0,0,0,.54,1.11,2.47,2.47,0,0,0,.84.72,2.41,2.41,0,0,0,2.16,0,2.49,2.49,0,0,0,.84-.72A3.41,3.41,0,0,0,81.33,12a5.1,5.1,0,0,0,.19-1.44,5.2,5.2,0,0,0-.19-1.45A3.52,3.52,0,0,0,80.79,8a2.45,2.45,0,0,0-.84-.73,2.41,2.41,0,0,0-2.16,0,2.44,2.44,0,0,0-.84.73A3.5,3.5,0,0,0,76.4,9.1,5.2,5.2,0,0,0,76.21,10.55Z"/><path d="M84.87,10.55a5.61,5.61,0,0,1,.35-2.05A4.68,4.68,0,0,1,86.16,7,3.93,3.93,0,0,1,87.51,6a4.23,4.23,0,0,1,3.24,0A3.93,3.93,0,0,1,92.1,7,4.7,4.7,0,0,1,93,8.49a5.63,5.63,0,0,1,.35,2.05,5.57,5.57,0,0,1-.35,2,4.59,4.59,0,0,1-.94,1.52,4,4,0,0,1-1.35.94,4.23,4.23,0,0,1-3.24,0,4,4,0,0,1-1.35-.94,4.57,4.57,0,0,1-.94-1.52A5.55,5.55,0,0,1,84.87,10.55Zm1.61,0A5.1,5.1,0,0,0,86.67,12a3.4,3.4,0,0,0,.54,1.11,2.47,2.47,0,0,0,.84.72,2.41,2.41,0,0,0,2.16,0,2.49,2.49,0,0,0,.84-.72A3.41,3.41,0,0,0,91.59,12a5.1,5.1,0,0,0,.19-1.44,5.2,5.2,0,0,0-.19-1.45A3.52,3.52,0,0,0,91.05,8a2.45,2.45,0,0,0-.84-.73,2.41,2.41,0,0,0-2.16,0,2.44,2.44,0,0,0-.84.73,3.5,3.5,0,0,0-.54,1.13A5.2,5.2,0,0,0,86.48,10.55Z"/><path d="M95.15,10.55a5.78,5.78,0,0,1,.33-2A4.78,4.78,0,0,1,96.36,7a3.9,3.9,0,0,1,1.27-1,3.5,3.5,0,0,1,1.52-.34,3.14,3.14,0,0,1,1.38.28,6.16,6.16,0,0,1,1.19.78l-.08-1.57V1.65h1.57V15.13h-1.29L101.8,14h-.06a5.8,5.8,0,0,1-1.26.92,3.13,3.13,0,0,1-1.52.39,3.41,3.41,0,0,1-2.77-1.25A5.45,5.45,0,0,1,95.15,10.55Zm1.61,0a4.4,4.4,0,0,0,.66,2.59A2.17,2.17,0,0,0,99.3,14a2.48,2.48,0,0,0,1.21-.31,4.37,4.37,0,0,0,1.14-1V8a3.9,3.9,0,0,0-1.13-.75A2.93,2.93,0,0,0,99.41,7a2.17,2.17,0,0,0-1,.26,2.62,2.62,0,0,0-.84.72A3.61,3.61,0,0,0,97,9.09,4.64,4.64,0,0,0,96.76,10.53Z"/><path d="M109.69,12.74A2.55,2.55,0,0,1,111,10.42a11.2,11.2,0,0,1,4.31-1.13,4.26,4.26,0,0,0-.08-.85,2,2,0,0,0-.3-.74,1.65,1.65,0,0,0-.58-.52,1.91,1.91,0,0,0-.93-.2,3.71,3.71,0,0,0-1.5.3,7.41,7.41,0,0,0-1.24.68l-.62-1.08a10.07,10.07,0,0,1,1.57-.8,5.24,5.24,0,0,1,2-.39,2.83,2.83,0,0,1,2.44,1,4.56,4.56,0,0,1,.76,2.76v5.64h-1.29l-.13-1.1h0A7.62,7.62,0,0,1,114,15a3.54,3.54,0,0,1-1.62.39,2.81,2.81,0,0,1-1.94-.68A2.45,2.45,0,0,1,109.69,12.74Zm1.53-.11a1.32,1.32,0,0,0,.46,1.14,1.88,1.88,0,0,0,1.15.34,2.68,2.68,0,0,0,1.26-.31,6.12,6.12,0,0,0,1.26-.92V10.32a16.16,16.16,0,0,0-2,.36,5.12,5.12,0,0,0-1.28.49,1.84,1.84,0,0,0-.69.65A1.61,1.61,0,0,0,111.22,12.63Z"/><path d="M119.84,5.93h1.29l.13,1.33h.06a7.54,7.54,0,0,1,1.39-1.11,3.19,3.19,0,0,1,1.7-.44,2.47,2.47,0,0,1,2.13.91,4.49,4.49,0,0,1,.67,2.69v5.83h-1.55V9.5a3.29,3.29,0,0,0-.42-1.88A1.52,1.52,0,0,0,123.91,7a2.26,2.26,0,0,0-1.27.36,8.25,8.25,0,0,0-1.25,1.06v6.67h-1.55Z"/><path d="M129.54,10.55a5.78,5.78,0,0,1,.33-2A4.78,4.78,0,0,1,130.75,7,3.9,3.9,0,0,1,132,6a3.5,3.5,0,0,1,1.52-.34,3.14,3.14,0,0,1,1.38.28,6.16,6.16,0,0,1,1.19.78L136,5.19V1.65h1.57V15.13h-1.29L136.18,14h-.06a5.8,5.8,0,0,1-1.26.92,3.13,3.13,0,0,1-1.52.39,3.41,3.41,0,0,1-2.77-1.25A5.45,5.45,0,0,1,129.54,10.55Zm1.61,0a4.4,4.4,0,0,0,.66,2.59,2.17,2.17,0,0,0,1.88.93,2.48,2.48,0,0,0,1.21-.31,4.37,4.37,0,0,0,1.14-1V8a3.9,3.9,0,0,0-1.13-.75A2.93,2.93,0,0,0,133.8,7a2.17,2.17,0,0,0-1,.26,2.62,2.62,0,0,0-.84.72,3.61,3.61,0,0,0-.57,1.11A4.64,4.64,0,0,0,131.14,10.53Z"/><path d="M144.68,2.71h1.63l4.49,7.8,1.34,2.58h.08q-.06-.95-.12-2t-.07-2V2.71h1.5V15.13H151.9l-4.51-7.82L146,4.75H146q.07.95.14,1.92t.07,2v6.49h-1.5Z"/><path d="M156.65,5.93h1.57v5.62a3.35,3.35,0,0,0,.41,1.88,1.5,1.5,0,0,0,1.32.58,2.22,2.22,0,0,0,1.27-.37,6,6,0,0,0,1.21-1.18V5.93H164v9.2h-1.29l-.13-1.44h-.06a6.15,6.15,0,0,1-1.35,1.21,3,3,0,0,1-1.68.45,2.49,2.49,0,0,1-2.15-.91,4.49,4.49,0,0,1-.67-2.69Z"/><path d="M167.35,7.19H166V6l1.44-.09.19-2.58h1.31V5.93h2.48V7.19h-2.48v5.11a2.34,2.34,0,0,0,.31,1.32,1.24,1.24,0,0,0,1.11.46,2.05,2.05,0,0,0,.53-.08,3.93,3.93,0,0,0,.51-.17l.3,1.17a8.05,8.05,0,0,1-.82.24,3.86,3.86,0,0,1-.88.1,3,3,0,0,1-1.24-.23,2.13,2.13,0,0,1-.81-.62,2.42,2.42,0,0,1-.45-1,5.53,5.53,0,0,1-.13-1.25Z"/><path d="M173.48,5.93h1.29l.13,1.67H175a4.25,4.25,0,0,1,1.15-1.38,2.37,2.37,0,0,1,1.47-.51,2.45,2.45,0,0,1,1,.19l-.3,1.36-.42-.11a2.51,2.51,0,0,0-.47,0,2.06,2.06,0,0,0-1.22.47A3.77,3.77,0,0,0,175,9.22v5.91h-1.55Z"/><path d="M180.85,4a1.1,1.1,0,0,1-.77-.28.93.93,0,0,1-.31-.72.92.92,0,0,1,.31-.73,1.21,1.21,0,0,1,1.53,0,.92.92,0,0,1,.31.73.93.93,0,0,1-.31.72A1.1,1.1,0,0,1,180.85,4Zm-.79,1.89h1.55v9.2h-1.55Z"/><path d="M185,7.19h-1.36V6l1.44-.09.19-2.58h1.31V5.93H189V7.19h-2.48v5.11a2.34,2.34,0,0,0,.31,1.32,1.24,1.24,0,0,0,1.11.46,2.05,2.05,0,0,0,.53-.08,3.93,3.93,0,0,0,.51-.17l.3,1.17a8.05,8.05,0,0,1-.82.24,3.86,3.86,0,0,1-.88.1,3,3,0,0,1-1.24-.23,2.13,2.13,0,0,1-.81-.62,2.42,2.42,0,0,1-.45-1,5.53,5.53,0,0,1-.13-1.25Z"/><path d="M191.91,4a1.1,1.1,0,0,1-.77-.28.93.93,0,0,1-.31-.72.92.92,0,0,1,.31-.73,1.21,1.21,0,0,1,1.53,0A.92.92,0,0,1,193,3a.93.93,0,0,1-.31.72A1.1,1.1,0,0,1,191.91,4Zm-.79,1.89h1.55v9.2h-1.55Z"/><path d="M195.09,10.55a5.61,5.61,0,0,1,.35-2.05A4.68,4.68,0,0,1,196.37,7,3.93,3.93,0,0,1,197.73,6,4.23,4.23,0,0,1,201,6a3.93,3.93,0,0,1,1.35.95,4.7,4.7,0,0,1,.94,1.52,5.63,5.63,0,0,1,.35,2.05,5.57,5.57,0,0,1-.35,2,4.59,4.59,0,0,1-.94,1.52A4,4,0,0,1,201,15a4.23,4.23,0,0,1-3.24,0,4,4,0,0,1-1.35-.94,4.57,4.57,0,0,1-.94-1.52A5.55,5.55,0,0,1,195.09,10.55Zm1.61,0a5.1,5.1,0,0,0,.19,1.44,3.4,3.4,0,0,0,.54,1.11,2.47,2.47,0,0,0,.84.72,2.41,2.41,0,0,0,2.16,0,2.49,2.49,0,0,0,.84-.72,3.41,3.41,0,0,0,.54-1.11,5.1,5.1,0,0,0,.19-1.44,5.2,5.2,0,0,0-.19-1.45A3.52,3.52,0,0,0,201.27,8a2.45,2.45,0,0,0-.84-.73,2.41,2.41,0,0,0-2.16,0,2.44,2.44,0,0,0-.84.73,3.5,3.5,0,0,0-.54,1.13A5.2,5.2,0,0,0,196.7,10.55Z"/><path d="M206,5.93h1.29l.13,1.33h.06a7.54,7.54,0,0,1,1.39-1.11,3.19,3.19,0,0,1,1.7-.44,2.47,2.47,0,0,1,2.13.91,4.49,4.49,0,0,1,.67,2.69v5.83h-1.55V9.5a3.29,3.29,0,0,0-.42-1.88A1.52,1.52,0,0,0,210.1,7a2.26,2.26,0,0,0-1.27.36,8.25,8.25,0,0,0-1.25,1.06v6.67H206Z"/><path d="M220.4,12.42A5.18,5.18,0,0,0,222,13.55a4.31,4.31,0,0,0,1.87.43,2.94,2.94,0,0,0,1.91-.56,1.81,1.81,0,0,0,.68-1.47,1.83,1.83,0,0,0-.16-.8,1.76,1.76,0,0,0-.44-.57,3.2,3.2,0,0,0-.65-.43l-.81-.4L222.58,9a8.45,8.45,0,0,1-.89-.45,3.65,3.65,0,0,1-.81-.64,3.07,3.07,0,0,1-.59-.9,3,3,0,0,1-.23-1.2,3,3,0,0,1,.29-1.31,3.22,3.22,0,0,1,.81-1.05,3.78,3.78,0,0,1,1.23-.69A4.75,4.75,0,0,1,224,2.48a5,5,0,0,1,2.06.43A5.19,5.19,0,0,1,227.64,4l-.85,1a4.44,4.44,0,0,0-1.26-.86A3.76,3.76,0,0,0,224,3.86a2.7,2.7,0,0,0-1.68.48,1.58,1.58,0,0,0-.63,1.33,1.51,1.51,0,0,0,.18.77,1.88,1.88,0,0,0,.48.55,3.9,3.9,0,0,0,.66.42q.36.18.74.33l1.76.76a7.55,7.55,0,0,1,1,.52,3.61,3.61,0,0,1,.81.68,3,3,0,0,1,.54.91,3.35,3.35,0,0,1,.2,1.2,3.28,3.28,0,0,1-1.14,2.51,4,4,0,0,1-1.33.76,5.26,5.26,0,0,1-1.76.27,6,6,0,0,1-4.36-1.84Z"/><path d="M229.64,10.55a5.55,5.55,0,0,1,.35-2A4.75,4.75,0,0,1,230.92,7a4,4,0,0,1,1.32-1,3.71,3.71,0,0,1,1.53-.33,3.86,3.86,0,0,1,1.56.3,3.05,3.05,0,0,1,1.16.87,4,4,0,0,1,.71,1.36,6,6,0,0,1,.25,1.78,5.3,5.3,0,0,1-.06.85h-6.21a3.66,3.66,0,0,0,.92,2.37,2.82,2.82,0,0,0,2.15.87,3.62,3.62,0,0,0,1.22-.2,5.42,5.42,0,0,0,1.07-.52l.55,1a7.83,7.83,0,0,1-1.34.66,4.68,4.68,0,0,1-1.68.28,4.51,4.51,0,0,1-1.73-.33,4.1,4.1,0,0,1-1.4-.95,4.39,4.39,0,0,1-.94-1.51A5.63,5.63,0,0,1,229.64,10.55Zm6.44-.7a3.42,3.42,0,0,0-.6-2.17,2,2,0,0,0-1.68-.75,2.26,2.26,0,0,0-.94.2,2.59,2.59,0,0,0-.8.57,3,3,0,0,0-.6.91,4.19,4.19,0,0,0-.31,1.24Z"/><path d="M239.72,5.93H241l.13,1.67h.06a4.25,4.25,0,0,1,1.15-1.38,2.37,2.37,0,0,1,1.47-.51,2.45,2.45,0,0,1,1,.19l-.3,1.36-.42-.11a2.51,2.51,0,0,0-.47,0,2.06,2.06,0,0,0-1.22.47,3.77,3.77,0,0,0-1.11,1.65v5.91h-1.55Z"/><path d="M245,5.93h1.61l1.74,5.23q.21.68.43,1.36l.43,1.34h.08l.42-1.34.42-1.36,1.74-5.23h1.53l-3.26,9.2h-1.82Z"/><path d="M255.92,4a1.1,1.1,0,0,1-.77-.28.93.93,0,0,1-.31-.72.92.92,0,0,1,.31-.73,1.21,1.21,0,0,1,1.53,0A.92.92,0,0,1,257,3a.93.93,0,0,1-.31.72A1.1,1.1,0,0,1,255.92,4Zm-.79,1.89h1.55v9.2h-1.55Z"/><path d="M259.11,10.55a5.51,5.51,0,0,1,.36-2.05,4.63,4.63,0,0,1,1-1.52A4,4,0,0,1,261.84,6a4.52,4.52,0,0,1,1.69-.32A3.42,3.42,0,0,1,265.1,6a5,5,0,0,1,1.13.77l-.78,1a4.36,4.36,0,0,0-.86-.59,2.16,2.16,0,0,0-1-.23,2.63,2.63,0,0,0-1.16.26,2.59,2.59,0,0,0-.91.73,3.59,3.59,0,0,0-.6,1.13,4.55,4.55,0,0,0-.22,1.45,4.67,4.67,0,0,0,.21,1.44,3.47,3.47,0,0,0,.58,1.11,2.55,2.55,0,0,0,.9.72,2.76,2.76,0,0,0,2.36,0,4.32,4.32,0,0,0,1-.65l.7,1A5,5,0,0,1,265,15a4.1,4.1,0,0,1-1.6.32,4.5,4.5,0,0,1-1.7-.32,3.82,3.82,0,0,1-1.37-.94,4.39,4.39,0,0,1-.91-1.52A5.86,5.86,0,0,1,259.11,10.55Z"/><path d="M267.74,10.55a5.55,5.55,0,0,1,.35-2A4.75,4.75,0,0,1,269,7a4,4,0,0,1,1.32-1,3.71,3.71,0,0,1,1.53-.33,3.86,3.86,0,0,1,1.56.3,3.05,3.05,0,0,1,1.16.87,4,4,0,0,1,.71,1.36,6,6,0,0,1,.25,1.78,5.3,5.3,0,0,1-.06.85h-6.21a3.66,3.66,0,0,0,.92,2.37,2.82,2.82,0,0,0,2.15.87,3.62,3.62,0,0,0,1.22-.2,5.42,5.42,0,0,0,1.07-.52l.55,1a7.83,7.83,0,0,1-1.34.66,4.68,4.68,0,0,1-1.68.28,4.51,4.51,0,0,1-1.73-.33,4.1,4.1,0,0,1-1.4-.95,4.39,4.39,0,0,1-.94-1.51A5.63,5.63,0,0,1,267.74,10.55Zm6.44-.7a3.42,3.42,0,0,0-.6-2.17,2,2,0,0,0-1.68-.75,2.26,2.26,0,0,0-.94.2,2.59,2.59,0,0,0-.8.57,3,3,0,0,0-.6.91,4.19,4.19,0,0,0-.31,1.24Z"/><path d="M65.37,24.48h.94v4.4A4,4,0,0,0,66.45,30a2,2,0,0,0,.37.73,1.33,1.33,0,0,0,.55.39,1.91,1.91,0,0,0,.68.12,1.93,1.93,0,0,0,.69-.12,1.36,1.36,0,0,0,.56-.39,1.9,1.9,0,0,0,.38-.73,3.93,3.93,0,0,0,.14-1.12v-4.4h.91v4.37a4.82,4.82,0,0,1-.21,1.51,2.66,2.66,0,0,1-.56,1,2,2,0,0,1-.85.55,3.31,3.31,0,0,1-1.06.17A3.35,3.35,0,0,1,67,31.9a2,2,0,0,1-.85-.55,2.63,2.63,0,0,1-.56-1,4.85,4.85,0,0,1-.2-1.51Z"/><path d="M72.28,31.36a.71.71,0,0,1,.2-.53.66.66,0,0,1,.48-.2.65.65,0,0,1,.47.2.71.71,0,0,1,.2.53.68.68,0,0,1-.2.51.64.64,0,0,1-.47.2.65.65,0,0,1-.48-.2A.68.68,0,0,1,72.28,31.36Z"/><path d="M75.41,30.31a3.13,3.13,0,0,0,.94.68,2.59,2.59,0,0,0,1.12.25,1.76,1.76,0,0,0,1.15-.33A1.08,1.08,0,0,0,79,30a1.1,1.1,0,0,0-.1-.48,1,1,0,0,0-.26-.34,1.9,1.9,0,0,0-.39-.26l-.49-.24-1.07-.47a5,5,0,0,1-.53-.27,2.23,2.23,0,0,1-.49-.39,1.86,1.86,0,0,1-.35-.54,1.9,1.9,0,0,1,0-1.5,1.93,1.93,0,0,1,.49-.63,2.28,2.28,0,0,1,.74-.41,2.84,2.84,0,0,1,.94-.15,3,3,0,0,1,1.24.26,3.11,3.11,0,0,1,1,.66l-.51.61a2.67,2.67,0,0,0-.76-.52,2.25,2.25,0,0,0-.94-.19,1.62,1.62,0,0,0-1,.29,1,1,0,0,0-.38.8.91.91,0,0,0,.11.46,1.11,1.11,0,0,0,.29.33,2.32,2.32,0,0,0,.4.25l.44.2,1.06.45a4.56,4.56,0,0,1,.6.31,2.16,2.16,0,0,1,.49.41,1.79,1.79,0,0,1,.32.54,2,2,0,0,1,.12.72,2,2,0,0,1-.18.83,2,2,0,0,1-.5.68,2.41,2.41,0,0,1-.8.45,3.17,3.17,0,0,1-1.06.17A3.58,3.58,0,0,1,74.84,31Z"/><path d="M81.17,31.36a.71.71,0,0,1,.2-.53.66.66,0,0,1,.48-.2.65.65,0,0,1,.47.2.71.71,0,0,1,.2.53.68.68,0,0,1-.2.51.64.64,0,0,1-.47.2.65.65,0,0,1-.48-.2A.68.68,0,0,1,81.17,31.36Z"/><path d="M86.58,24.48h1.86a3.43,3.43,0,0,1,2.62,1,3.85,3.85,0,0,1,.9,2.74,5.12,5.12,0,0,1-.23,1.58,3.17,3.17,0,0,1-.67,1.18,2.89,2.89,0,0,1-1.09.74,4,4,0,0,1-1.49.26H86.58Zm1.79,6.68a2.41,2.41,0,0,0,2-.78,3.35,3.35,0,0,0,.65-2.2A3.21,3.21,0,0,0,90.33,26a2.46,2.46,0,0,0-2-.75h-.85v5.91Z"/><path d="M93.57,24.48h4.29v.79H94.51v2.34h2.83v.81H94.51v2.7H98v.81H93.57Z"/><path d="M99.55,24.48h2.28a5.19,5.19,0,0,1,1.13.11,2.35,2.35,0,0,1,.87.37,1.72,1.72,0,0,1,.56.68,2.75,2.75,0,0,1,0,2.06,1.92,1.92,0,0,1-.56.72,2.48,2.48,0,0,1-.87.43,4.13,4.13,0,0,1-1.12.14H100.5v3h-.94Zm2.17,3.73a2.34,2.34,0,0,0,1.45-.37,1.39,1.39,0,0,0,.47-1.16,1.24,1.24,0,0,0-.48-1.12,2.67,2.67,0,0,0-1.44-.31H100.5v3Z"/><path d="M108.95,29.66h-2.71l-.72,2.27h-1l2.52-7.45h1.07l2.52,7.45h-1Zm-.24-.76-.35-1.14q-.2-.63-.39-1.24t-.36-1.27h0q-.17.65-.35,1.27t-.39,1.24l-.35,1.14Z"/><path d="M115.81,31.93,114,28.78h-1.35v3.15h-.94V24.48H114a4.8,4.8,0,0,1,1.05.11,2.22,2.22,0,0,1,.83.36,1.7,1.7,0,0,1,.54.65,2.22,2.22,0,0,1,.19,1,2.06,2.06,0,0,1-.46,1.4,2.31,2.31,0,0,1-1.21.72l1.89,3.25ZM112.66,28h1.25a2.17,2.17,0,0,0,1.34-.36,1.28,1.28,0,0,0,.47-1.08,1.13,1.13,0,0,0-.47-1,2.52,2.52,0,0,0-1.34-.3h-1.25Z"/><path d="M119.64,25.27h-2.25v-.79h5.45v.79h-2.25v6.66h-1Z"/><path d="M124.18,24.48h1.11l1.44,4,.54,1.52h0l.52-1.52,1.43-4h1.11v7.45h-.9v-4.1q0-.5,0-1.1t.09-1.1h0l-.6,1.66-1.43,3.9H127l-1.44-3.9L125,25.63h0q0,.5.08,1.1t0,1.1v4.1h-.87Z"/><path d="M132.44,24.48h4.29v.79h-3.35v2.34h2.83v.81h-2.83v2.7h3.46v.81h-4.41Z"/><path d="M138.43,24.48h1l2.69,4.68.81,1.55h0q0-.57-.07-1.18c0-.4,0-.8,0-1.2V24.48h.9v7.45h-1l-2.7-4.69-.81-1.53h0q0,.57.08,1.15t0,1.18v3.9h-.9Z"/><path d="M147.33,25.27h-2.25v-.79h5.45v.79h-2.25v6.66h-1Z"/><path d="M156.91,32.07a3,3,0,0,1-1.29-.27,2.86,2.86,0,0,1-1-.78,3.64,3.64,0,0,1-.65-1.23,5.25,5.25,0,0,1-.23-1.62,5.15,5.15,0,0,1,.23-1.61,3.54,3.54,0,0,1,.65-1.2,2.81,2.81,0,0,1,1-.76,3.13,3.13,0,0,1,1.29-.26,3.08,3.08,0,0,1,1.29.27,2.93,2.93,0,0,1,1,.76,3.48,3.48,0,0,1,.66,1.2,5.11,5.11,0,0,1,.23,1.6,5.25,5.25,0,0,1-.23,1.62,3.58,3.58,0,0,1-.66,1.23,2.92,2.92,0,0,1-1,.78A3,3,0,0,1,156.91,32.07Zm0-.83a1.87,1.87,0,0,0,.9-.22,2,2,0,0,0,.69-.62,3.05,3.05,0,0,0,.45-1,4.64,4.64,0,0,0,.16-1.27,4.54,4.54,0,0,0-.16-1.25,2.85,2.85,0,0,0-.45-.94,2.05,2.05,0,0,0-.69-.6,2,2,0,0,0-1.81,0,2,2,0,0,0-.69.6,2.87,2.87,0,0,0-.45.94,4.58,4.58,0,0,0-.16,1.25,4.68,4.68,0,0,0,.16,1.27,3.08,3.08,0,0,0,.45,1A2,2,0,0,0,156,31,1.87,1.87,0,0,0,156.91,31.24Z"/><path d="M161.71,24.48H166v.79h-3.35V27.8h2.84v.8h-2.84v3.34h-.94Z"/><path d="M173,29.66h-2.71l-.72,2.27h-1l2.52-7.45h1.07l2.52,7.45h-1Zm-.24-.76-.35-1.14q-.2-.63-.39-1.24t-.36-1.27h0q-.17.65-.35,1.27t-.39,1.24l-.35,1.14Z"/><path d="M175.25,28.21a4.76,4.76,0,0,1,.26-1.61,3.51,3.51,0,0,1,.72-1.22,3.13,3.13,0,0,1,1.08-.77,3.46,3.46,0,0,1,1.37-.27,2.61,2.61,0,0,1,1.29.29,3.64,3.64,0,0,1,.85.63l-.53.6a2.64,2.64,0,0,0-.65-.49,2,2,0,0,0-.94-.2,2.41,2.41,0,0,0-1,.21,2.15,2.15,0,0,0-.77.6,2.86,2.86,0,0,0-.49.95,4.11,4.11,0,0,0-.18,1.25,4.52,4.52,0,0,0,.17,1.27,2.79,2.79,0,0,0,.48,1,2.1,2.1,0,0,0,.77.61,2.46,2.46,0,0,0,1.06.22,2.35,2.35,0,0,0,.75-.12,1.63,1.63,0,0,0,.58-.32V28.85h-1.58v-.78h2.44V31.2a2.78,2.78,0,0,1-1,.62,3.52,3.52,0,0,1-1.35.25,3.43,3.43,0,0,1-1.35-.26,3,3,0,0,1-1.06-.76,3.5,3.5,0,0,1-.69-1.21A5,5,0,0,1,175.25,28.21Z"/><path d="M186.78,31.93,185,28.78h-1.35v3.15h-.94V24.48H185a4.8,4.8,0,0,1,1.05.11,2.22,2.22,0,0,1,.83.36,1.7,1.7,0,0,1,.54.65,2.22,2.22,0,0,1,.19,1,2.06,2.06,0,0,1-.46,1.4,2.31,2.31,0,0,1-1.21.72l1.89,3.25ZM183.64,28h1.25a2.17,2.17,0,0,0,1.34-.36,1.28,1.28,0,0,0,.47-1.08,1.13,1.13,0,0,0-.47-1,2.52,2.52,0,0,0-1.34-.3h-1.25Z"/><path d="M189.29,24.48h.94v7.45h-.94Z"/><path d="M191.85,28.21a4.87,4.87,0,0,1,.25-1.61,3.57,3.57,0,0,1,.69-1.22,3,3,0,0,1,1.05-.77,3.25,3.25,0,0,1,1.32-.27,2.46,2.46,0,0,1,1.19.28,3.17,3.17,0,0,1,.84.64l-.53.6a2.44,2.44,0,0,0-.65-.51,1.78,1.78,0,0,0-.83-.19,2.17,2.17,0,0,0-1,.21,2.09,2.09,0,0,0-.74.6,2.89,2.89,0,0,0-.48.95,4.28,4.28,0,0,0-.17,1.25,4.52,4.52,0,0,0,.17,1.27,3,3,0,0,0,.46,1,2,2,0,0,0,.72.61,2.08,2.08,0,0,0,1,.22,2,2,0,0,0,.95-.22,2.91,2.91,0,0,0,.77-.61l.53.58a3.32,3.32,0,0,1-1,.8,2.76,2.76,0,0,1-1.27.28,3.21,3.21,0,0,1-1.3-.26,2.94,2.94,0,0,1-1-.76,3.5,3.5,0,0,1-.68-1.21A5.07,5.07,0,0,1,191.85,28.21Z"/><path d="M198.57,24.48h.94v4.4a4,4,0,0,0,.14,1.12,2,2,0,0,0,.37.73,1.33,1.33,0,0,0,.55.39,1.91,1.91,0,0,0,.68.12,1.94,1.94,0,0,0,.69-.12,1.37,1.37,0,0,0,.56-.39,1.93,1.93,0,0,0,.38-.73,4,4,0,0,0,.14-1.12v-4.4h.91v4.37a4.82,4.82,0,0,1-.21,1.51,2.63,2.63,0,0,1-.56,1,2,2,0,0,1-.85.55,3.3,3.3,0,0,1-1.06.17,3.35,3.35,0,0,1-1.06-.17,2,2,0,0,1-.85-.55,2.64,2.64,0,0,1-.56-1,4.82,4.82,0,0,1-.21-1.51Z"/><path d="M205.94,24.48h.94v6.65h3.26v.81h-4.2Z"/><path d="M211.64,25.27h-2.25v-.79h5.45v.79h-2.25v6.66h-1Z"/><path d="M216.15,24.48h.94v4.4a4,4,0,0,0,.14,1.12,2,2,0,0,0,.37.73,1.33,1.33,0,0,0,.55.39,1.91,1.91,0,0,0,.68.12,1.94,1.94,0,0,0,.69-.12,1.37,1.37,0,0,0,.56-.39,1.93,1.93,0,0,0,.38-.73,4,4,0,0,0,.14-1.12v-4.4h.91v4.37a4.82,4.82,0,0,1-.21,1.51,2.63,2.63,0,0,1-.56,1,2,2,0,0,1-.85.55,3.3,3.3,0,0,1-1.06.17,3.35,3.35,0,0,1-1.06-.17,2,2,0,0,1-.85-.55,2.64,2.64,0,0,1-.56-1,4.82,4.82,0,0,1-.21-1.51Z"/><path d="M227.6,31.93l-1.79-3.15h-1.35v3.15h-.94V24.48h2.33a4.8,4.8,0,0,1,1.05.11,2.22,2.22,0,0,1,.83.36,1.7,1.7,0,0,1,.54.65,2.22,2.22,0,0,1,.19,1A2.06,2.06,0,0,1,228,28a2.31,2.31,0,0,1-1.21.72l1.89,3.25ZM224.46,28h1.25a2.17,2.17,0,0,0,1.34-.36,1.28,1.28,0,0,0,.47-1.08,1.13,1.13,0,0,0-.47-1,2.52,2.52,0,0,0-1.34-.3h-1.25Z"/><path d="M230.11,24.48h4.29v.79h-3.35v2.34h2.83v.81h-2.83v2.7h3.46v.81h-4.41Z"/><g clip-path="url(#a)"><path d="M12.39,2.08l-.07,9c0,3.75-2.23,5.2-5.22,5.2-2.58,0-5.86-1.14-5.86-5V2.08a1.12,1.12,0,0,0-.7-1H4.76a1.1,1.1,0,0,0-.68,1v9.23c0,1.54.53,3.72,3.39,3.72C10.1,15,11,13.32,11,11.14l0-9.05a1.06,1.06,0,0,0-.59-1H13a1,1,0,0,0-.57,1" fill="#004785"/><path d="M18.36,16.29a9.35,9.35,0,0,1-4.23-1.06L14,11.51c.42,1.56,1.74,3.63,4,3.63a2.59,2.59,0,0,0,2.84-2.64C20.89,10.39,19,10.1,17,9s-2.91-2.31-2.91-4c0-3,2.8-4.19,4.8-4.19a7.09,7.09,0,0,1,3.33.81l.11,3.26A4,4,0,0,0,18.62,2a2.13,2.13,0,0,0-2.34,2.12c0,1.34.95,1.85,3,2.8s4.19,1.7,4.19,4.76c0,2.75-2.42,4.63-5.13,4.63" fill="#004785"/><path d="M30.6,16.07H24.94a1.09,1.09,0,0,0,.57-1v-13a1,1,0,0,0-.57-1H30.8c7.25,0,8.7,5.13,8.7,7.27,0,3.83-3,7.71-8.9,7.71M30.34,2.19c-.53,0-1.7,0-2,0V14.93h1.76c5,0,6.37-3.35,6.37-6.56,0-2.64-1.54-6.17-6.1-6.17" fill="#004785"/><path d="M48.07,16.07c.57-.31.68-.62.53-1.08-.07-.22-.64-1.56-1.26-3.06h-5.4a32.45,32.45,0,0,0-1.23,3c-.2.53-.09.84.51,1.1h-3a2.62,2.62,0,0,0,1-1.08C39.63,14.16,45.43.63,45.43.63S51.29,14.16,51.68,15a1.94,1.94,0,0,0,1.1,1.08ZM44.59,5.39s-1.5,3.75-2.2,5.4h4.45c-1-2.45-2.25-5.4-2.25-5.4" fill="#004785"/><path d="M52.12,18.19s-32.06-.8-51,9.32c0,0,20.12-8,51-7.16Z" fill="#005941"/><path d="M1.08,18.19s10.8.11,17.51,2.62c0,0-13.76-1.14-17.51-.57Z" fill="#005941"/><path d="M1.08,21.71a114.53,114.53,0,0,1,12.39.11S2.21,23.19,1.08,23.76Z" fill="#005941"/><path d="M46.81,22.06h-.16c-9.32.18-28.87,1.3-45.56,7.2v7.1h51V22.06s-2-.06-5.32,0" fill="#005941"/></g></svg>